<svg version="1.1" xmlns="http://www.w3.org/2000/svg" xmlns:xlink="http://www.w3.org/1999/xlink" width="1278" height="229" viewBox="0 0 1278 229"><defs/><g transform="matrix(1,0,0,1,0,0)"><g><g><g><path fill="none" stroke="#d3d3d3" paint-order="fill stroke markers" d=" M 0 0 L 1200 0" stroke-miterlimit="10" stroke-opacity="0.8" stroke-dasharray="5"/></g><g><path fill="none" stroke="#d3d3d3" paint-order="fill stroke markers" d=" M 0 0 L 0 800" stroke-miterlimit="10" stroke-opacity="0.8" stroke-dasharray="5"/></g></g><g id="_6BA548AD-4FEE-4BE2-8B91-00CE89176079" bpmn2nodeid="_6BA548AD-4FEE-4BE2-8B91-00CE89176079" transform="matrix(1,0,0,1,100,100)"><g><path fill="none" stroke="none"/></g><g transform="matrix(0.125,0,0,0.125,0,0)"><g transform="matrix(1,0,0,1,0,0)"><path fill="#e8fae6" stroke="none" id="_6BA548AD-4FEE-4BE2-8B91-00CE89176079?shapeType=BACKGROUND" paint-order="stroke fill markers" d=" M 0 0 M 444 224 C 444 263.9 434.2 300.8 414.4 334.5 C 394.7 368.2 368 394.9 334.4 414.5 C 300.79999999999995 434.1 263.9 444 224 444 C 184.10000000000002 444 147.2 434.2 113.5 414.4 C 79.8 394.7 53.1 368 33.5 334.4 C 13.899999999999999 300.79999999999995 4 263.9 4 224 C 4 184.10000000000002 13.8 147.2 33.6 113.5 C 53.400000000000006 79.80000000000001 80.1 53.1 113.6 33.5 C 147.1 13.899999999999999 184.1 4 224 4 C 263.9 4 300.8 13.8 334.5 33.6 C 368.2 53.400000000000006 394.9 80.1 414.5 113.6 C 434.1 147.1 444 184.1 444 224 Z"/></g><g><g transform="matrix(1,0,0,1,0,0)"><g transform="matrix(1,0,0,1,0,0)"><path fill="#4aa241" stroke="none" id="_6BA548AD-4FEE-4BE2-8B91-00CE89176079?shapeType=BORDER&amp;renderType=FILL" paint-order="stroke fill markers" d=" M 0 0 M 224 0 C 100.3 0 0 100.3 0 224 C 0 347.7 100.3 448 224 448 C 347.7 448 448 347.7 448 224 C 448 100.30000000000001 347.7 0 224 0 Z M 0 0 M 224 432 C 109.1 432 16 338.9 16 224 C 16 109.10000000000002 109.1 16 224 16 C 338.9 16 432 109.1 432 224 C 432 338.9 338.9 432 224 432 Z"/></g></g></g></g><g transform="matrix(1,0,0,1,0,56)"><g/><g><path fill="none" stroke="black" id="_6BA548AD-4FEE-4BE2-8B91-00CE89176079undefined" paint-order="fill stroke markers" d=" M 0 0 L 0 0" stroke-miterlimit="10" stroke-opacity="0.1" stroke-dasharray=""/></g></g></g><g id="_0EE15D79-24D1-465E-93B3-C5E1E3630341" bpmn2nodeid="_0EE15D79-24D1-465E-93B3-C5E1E3630341" transform="matrix(1,0,0,1,236,77)"><g><path fill="none" stroke="none"/></g><g transform="matrix(1,0,0,1,0,0)"><path fill="#ffffff" stroke="none" id="_0EE15D79-24D1-465E-93B3-C5E1E3630341?shapeType=BACKGROUND" paint-order="stroke fill markers" d=" M 2 0 L 152 0 L 152 0 A 2 2 0 0 1 154 2 L 154 100 L 154 100 A 2 2 0 0 1 152 102 L 2 102 L 2 102 A 2 2 0 0 1 0 100 L 0 2 L 0 2.0000000000000004 A 2 2 0 0 1 1.9999999999999996 0 Z"/></g><g transform="matrix(1,0,0,1,0,0)"><path fill="none" stroke="rgb(0,0,0)" id="_0EE15D79-24D1-465E-93B3-C5E1E3630341?shapeType=BORDER&amp;renderType=STROKE" paint-order="fill stroke markers" d=" M 2 0 L 152 0 L 152 0 A 2 2 0 0 1 154 2 L 154 100 L 154 100 A 2 2 0 0 1 152 102 L 2 102 L 2 102 A 2 2 0 0 1 0 100 L 0 2 L 0 2.0000000000000004 A 2 2 0 0 1 1.9999999999999996 0 Z" stroke-miterlimit="10" stroke-width="1.5" stroke-dasharray=""/></g><g><g transform="matrix(0.06,0,0,0.06,9.4,9.4)"><g transform="matrix(1,0,0,1,0,0)"><path fill="#393f44" stroke="none" id="_0EE15D79-24D1-465E-93B3-C5E1E3630341undefined" paint-order="stroke fill markers" d=" M 0 0 M 197.3 130.2 C 194.4 127.29999999999998 189.60000000000002 127.29999999999998 186.70000000000002 130.2 L 130.20000000000002 186.7 C 127.30000000000001 189.6 127.30000000000001 194.39999999999998 130.20000000000002 197.29999999999998 L 186.70000000000002 253.79999999999998 C 188.10000000000002 255.29999999999998 190.10000000000002 255.99999999999997 192.00000000000003 255.99999999999997 C 193.90000000000003 255.99999999999997 195.90000000000003 255.29999999999998 197.30000000000004 253.69999999999996 C 200.20000000000005 250.79999999999995 200.20000000000005 245.99999999999997 197.30000000000004 243.09999999999997 L 146.2 192 L 197.29999999999998 140.8 C 200.2 137.9 200.2 133.1 197.3 130.2 Z"/></g><g transform="matrix(1,0,0,1,0,0)"><path fill="#393f44" stroke="none" id="_0EE15D79-24D1-465E-93B3-C5E1E3630341undefined" paint-order="stroke fill markers" d=" M 0 0 M 261.3 130.2 C 258.40000000000003 127.29999999999998 253.60000000000002 127.29999999999998 250.70000000000002 130.2 C 247.8 133.1 247.8 137.89999999999998 250.70000000000002 140.79999999999998 L 301.8 191.89999999999998 L 250.7 243 C 247.79999999999998 245.9 247.79999999999998 250.7 250.7 253.6 C 252.1 255.29999999999998 254.1 256 256 256 C 257.9 256 259.9 255.3 261.3 253.8 L 317.8 197.3 C 320.7 194.4 320.7 189.60000000000002 317.8 186.70000000000002 L 261.3 130.2 Z"/></g><g transform="matrix(1,0,0,1,0,0)"><path fill="#393f44" stroke="none" id="_0EE15D79-24D1-465E-93B3-C5E1E3630341undefined" paint-order="stroke fill markers" d=" M 0 0 M 400 32 C 400 32 152.8 32 128 32 C 62 32 64 96 64 96 L 64 288 L 1 288 C 1 288 -4 416 78 416 L 320 416 C 368 416 384 368 384 336 C 384 314.2 384 224.4 384 160 L 448 160 L 448 96 C 448 96 449 32 400 32 Z M 0 0 M 78 383.9 C 68.5 383.9 61.6 381.09999999999997 55.5 374.9 C 43.4 362.4 37.5 339.59999999999997 34.9 320 L 256.9 320 C 257.09999999999997 322.7 257.29999999999995 325.4 257.59999999999997 328.2 C 259.99999999999994 351.59999999999997 264.7 370.09999999999997 271.9 383.9 L 78 383.9 L 78 383.9 Z M 0 0 M 352 336 C 352 345.9 349.6 360.3 342.9 371 C 337.2 380.1 330.4 384 320 384 C 285 384 288 288 288 288 L 96 288 L 96 96 L 96 95.9 L 96 95.10000000000001 C 96 90.60000000000001 97.6 78.30000000000001 104.7 71.20000000000002 C 106.5 69.40000000000002 111.9 64.00000000000001 128 64.00000000000001 L 356.5 64.00000000000001 C 354.4 72.80000000000001 352.8 81.80000000000001 352.2 89.9 C 352.2 90.5 352.09999999999997 91.10000000000001 352.09999999999997 91.7 C 352.09999999999997 92 352.09999999999997 92.3 352.09999999999997 92.60000000000001 C 352 94.8 352 96 352 96 L 352 160 L 352 336 Z"/></g></g></g><g transform="matrix(1,0,0,1,0,43.5)"><g><text fill="#000000" stroke="none" font-family="Open Sans" font-size="12pt" font-style="normal" font-weight="normal" text-decoration="normal" x="77" y="12" text-anchor="middle" dominant-baseline="alphabetic" id="_0EE15D79-24D1-465E-93B3-C5E1E3630341undefined">     start processes     </text><path fill="none" stroke="none"/><text fill="none" stroke="#393f44" font-family="Open Sans" font-size="12pt" font-style="normal" font-weight="normal" text-decoration="normal" x="77" y="12" text-anchor="middle" dominant-baseline="alphabetic" stroke-miterlimit="10" stroke-dasharray="">     start processes     </text></g><g><path fill="none" stroke="black" id="_0EE15D79-24D1-465E-93B3-C5E1E3630341undefined" paint-order="fill stroke markers" d=" M 0 0 L 0 0" stroke-miterlimit="10" stroke-opacity="0.1" stroke-dasharray=""/></g></g></g><g id="_24548D2E-C951-4F9D-8F0C-069F34DDB5FD" bpmn2nodeid="_24548D2E-C951-4F9D-8F0C-069F34DDB5FD"><g><path fill="none" stroke="#000000" paint-order="fill stroke markers" d=" M 156 128 L 221 128" stroke-miterlimit="10" stroke-dasharray=""/></g><g transform="matrix(1,0,0,1,156,128)"/><g transform="matrix(6.123233995736766e-17,1,-1,6.123233995736766e-17,236,123)"><path fill="#000000" stroke="#000000" paint-order="fill stroke markers" d=" M 10 15 L 0 15 L 5 0 Z" stroke-miterlimit="10" stroke-dasharray=""/></g></g><g transform="matrix(1,0,0,1,100,100)"/><g transform="matrix(1,0,0,1,236,77)"/><g id="_4F958839-A4FD-4093-A146-C5D9C32943BC" bpmn2nodeid="_4F958839-A4FD-4093-A146-C5D9C32943BC"><g><path fill="none" stroke="#000000" paint-order="fill stroke markers" d=" M 390 128 L 455 128" stroke-miterlimit="10" stroke-dasharray=""/></g><g transform="matrix(1,0,0,1,390,128)"/><g transform="matrix(6.123233995736766e-17,1,-1,6.123233995736766e-17,470,123)"><path fill="#000000" stroke="#000000" paint-order="fill stroke markers" d=" M 10 15 L 0 15 L 5 0 Z" stroke-miterlimit="10" stroke-dasharray=""/></g></g><g id="_FC582EB5-98F0-4A1C-B80C-8B9A442B0070" bpmn2nodeid="_FC582EB5-98F0-4A1C-B80C-8B9A442B0070"><g><path fill="none" stroke="#000000" paint-order="fill stroke markers" d=" M 624 128 L 689 128" stroke-miterlimit="10" stroke-dasharray=""/></g><g transform="matrix(1,0,0,1,624,128)"/><g transform="matrix(6.123233995736766e-17,1,-1,6.123233995736766e-17,704,123)"><path fill="#000000" stroke="#000000" paint-order="fill stroke markers" d=" M 10 15 L 0 15 L 5 0 Z" stroke-miterlimit="10" stroke-dasharray=""/></g></g><g id="_6FC529E6-09E7-43F0-8671-B7712F93ACE9" bpmn2nodeid="_6FC529E6-09E7-43F0-8671-B7712F93ACE9" transform="matrix(1,0,0,1,470,77)"><g><path fill="none" stroke="none"/></g><g transform="matrix(1,0,0,1,0,0)"><path fill="#ffffff" stroke="none" id="_6FC529E6-09E7-43F0-8671-B7712F93ACE9?shapeType=BACKGROUND" paint-order="stroke fill markers" d=" M 2 0 L 152 0 L 152 0 A 2 2 0 0 1 154 2 L 154 100 L 154 100 A 2 2 0 0 1 152 102 L 2 102 L 2 102 A 2 2 0 0 1 0 100 L 0 2 L 0 2.0000000000000004 A 2 2 0 0 1 1.9999999999999996 0 Z"/></g><g transform="matrix(1,0,0,1,0,0)"><path fill="none" stroke="rgb(0,0,0)" id="_6FC529E6-09E7-43F0-8671-B7712F93ACE9?shapeType=BORDER&amp;renderType=STROKE" paint-order="fill stroke markers" d=" M 2 0 L 152 0 L 152 0 A 2 2 0 0 1 154 2 L 154 100 L 154 100 A 2 2 0 0 1 152 102 L 2 102 L 2 102 A 2 2 0 0 1 0 100 L 0 2 L 0 2.0000000000000004 A 2 2 0 0 1 1.9999999999999996 0 Z" stroke-miterlimit="10" stroke-width="1.5" stroke-dasharray=""/></g><g><g transform="matrix(0.06,0,0,0.06,9.4,9.4)"><g transform="matrix(1,0,0,1,0,0)"><path fill="#393f44" stroke="none" id="_6FC529E6-09E7-43F0-8671-B7712F93ACE9undefined" paint-order="stroke fill markers" d=" M 0 0 M 197.3 130.2 C 194.4 127.29999999999998 189.60000000000002 127.29999999999998 186.70000000000002 130.2 L 130.20000000000002 186.7 C 127.30000000000001 189.6 127.30000000000001 194.39999999999998 130.20000000000002 197.29999999999998 L 186.70000000000002 253.79999999999998 C 188.10000000000002 255.29999999999998 190.10000000000002 255.99999999999997 192.00000000000003 255.99999999999997 C 193.90000000000003 255.99999999999997 195.90000000000003 255.29999999999998 197.30000000000004 253.69999999999996 C 200.20000000000005 250.79999999999995 200.20000000000005 245.99999999999997 197.30000000000004 243.09999999999997 L 146.2 192 L 197.29999999999998 140.8 C 200.2 137.9 200.2 133.1 197.3 130.2 Z"/></g><g transform="matrix(1,0,0,1,0,0)"><path fill="#393f44" stroke="none" id="_6FC529E6-09E7-43F0-8671-B7712F93ACE9undefined" paint-order="stroke fill markers" d=" M 0 0 M 261.3 130.2 C 258.40000000000003 127.29999999999998 253.60000000000002 127.29999999999998 250.70000000000002 130.2 C 247.8 133.1 247.8 137.89999999999998 250.70000000000002 140.79999999999998 L 301.8 191.89999999999998 L 250.7 243 C 247.79999999999998 245.9 247.79999999999998 250.7 250.7 253.6 C 252.1 255.29999999999998 254.1 256 256 256 C 257.9 256 259.9 255.3 261.3 253.8 L 317.8 197.3 C 320.7 194.4 320.7 189.60000000000002 317.8 186.70000000000002 L 261.3 130.2 Z"/></g><g transform="matrix(1,0,0,1,0,0)"><path fill="#393f44" stroke="none" id="_6FC529E6-09E7-43F0-8671-B7712F93ACE9undefined" paint-order="stroke fill markers" d=" M 0 0 M 400 32 C 400 32 152.8 32 128 32 C 62 32 64 96 64 96 L 64 288 L 1 288 C 1 288 -4 416 78 416 L 320 416 C 368 416 384 368 384 336 C 384 314.2 384 224.4 384 160 L 448 160 L 448 96 C 448 96 449 32 400 32 Z M 0 0 M 78 383.9 C 68.5 383.9 61.6 381.09999999999997 55.5 374.9 C 43.4 362.4 37.5 339.59999999999997 34.9 320 L 256.9 320 C 257.09999999999997 322.7 257.29999999999995 325.4 257.59999999999997 328.2 C 259.99999999999994 351.59999999999997 264.7 370.09999999999997 271.9 383.9 L 78 383.9 L 78 383.9 Z M 0 0 M 352 336 C 352 345.9 349.6 360.3 342.9 371 C 337.2 380.1 330.4 384 320 384 C 285 384 288 288 288 288 L 96 288 L 96 96 L 96 95.9 L 96 95.10000000000001 C 96 90.60000000000001 97.6 78.30000000000001 104.7 71.20000000000002 C 106.5 69.40000000000002 111.9 64.00000000000001 128 64.00000000000001 L 356.5 64.00000000000001 C 354.4 72.80000000000001 352.8 81.80000000000001 352.2 89.9 C 352.2 90.5 352.09999999999997 91.10000000000001 352.09999999999997 91.7 C 352.09999999999997 92 352.09999999999997 92.3 352.09999999999997 92.60000000000001 C 352 94.8 352 96 352 96 L 352 160 L 352 336 Z"/></g></g></g><g transform="matrix(1,0,0,1,0,43.5)"><g><text fill="#000000" stroke="none" font-family="Open Sans" font-size="12pt" font-style="normal" font-weight="normal" text-decoration="normal" x="77" y="12" text-anchor="middle" dominant-baseline="alphabetic" id="_6FC529E6-09E7-43F0-8671-B7712F93ACE9undefined">       request offer       </text><path fill="none" stroke="none"/><text fill="none" stroke="#393f44" font-family="Open Sans" font-size="12pt" font-style="normal" font-weight="normal" text-decoration="normal" x="77" y="12" text-anchor="middle" dominant-baseline="alphabetic" stroke-miterlimit="10" stroke-dasharray="">       request offer       </text></g><g><path fill="none" stroke="black" id="_6FC529E6-09E7-43F0-8671-B7712F93ACE9undefined" paint-order="fill stroke markers" d=" M 0 0 L 0 0" stroke-miterlimit="10" stroke-opacity="0.1" stroke-dasharray=""/></g></g></g><g id="_6FC529E6-09E7-43F0-8671-B7712F93ACE9" bpmn2nodeid="_6FC529E6-09E7-43F0-8671-B7712F93ACE9" transform="matrix(1,0,0,1,470,77)"><g><path fill="none" stroke="none"/></g><g transform="matrix(1,0,0,1,0,0)"><path fill="#ffffff" stroke="none" id="_6FC529E6-09E7-43F0-8671-B7712F93ACE9?shapeType=BACKGROUND" paint-order="stroke fill markers" d=" M 2 0 L 152 0 L 152 0 A 2 2 0 0 1 154 2 L 154 100 L 154 100 A 2 2 0 0 1 152 102 L 2 102 L 2 102 A 2 2 0 0 1 0 100 L 0 2 L 0 2.0000000000000004 A 2 2 0 0 1 1.9999999999999996 0 Z"/></g><g transform="matrix(1,0,0,1,0,0)"><path fill="none" stroke="rgb(0,0,0)" id="_6FC529E6-09E7-43F0-8671-B7712F93ACE9?shapeType=BORDER&amp;renderType=STROKE" paint-order="fill stroke markers" d=" M 2 0 L 152 0 L 152 0 A 2 2 0 0 1 154 2 L 154 100 L 154 100 A 2 2 0 0 1 152 102 L 2 102 L 2 102 A 2 2 0 0 1 0 100 L 0 2 L 0 2.0000000000000004 A 2 2 0 0 1 1.9999999999999996 0 Z" stroke-miterlimit="10" stroke-width="1.5" stroke-dasharray=""/></g><g><g transform="matrix(0.06,0,0,0.06,9.4,9.4)"><g transform="matrix(1,0,0,1,0,0)"><path fill="#393f44" stroke="none" id="_6FC529E6-09E7-43F0-8671-B7712F93ACE9undefined" paint-order="stroke fill markers" d=" M 0 0 M 197.3 130.2 C 194.4 127.29999999999998 189.60000000000002 127.29999999999998 186.70000000000002 130.2 L 130.20000000000002 186.7 C 127.30000000000001 189.6 127.30000000000001 194.39999999999998 130.20000000000002 197.29999999999998 L 186.70000000000002 253.79999999999998 C 188.10000000000002 255.29999999999998 190.10000000000002 255.99999999999997 192.00000000000003 255.99999999999997 C 193.90000000000003 255.99999999999997 195.90000000000003 255.29999999999998 197.30000000000004 253.69999999999996 C 200.20000000000005 250.79999999999995 200.20000000000005 245.99999999999997 197.30000000000004 243.09999999999997 L 146.2 192 L 197.29999999999998 140.8 C 200.2 137.9 200.2 133.1 197.3 130.2 Z"/></g><g transform="matrix(1,0,0,1,0,0)"><path fill="#393f44" stroke="none" id="_6FC529E6-09E7-43F0-8671-B7712F93ACE9undefined" paint-order="stroke fill markers" d=" M 0 0 M 261.3 130.2 C 258.40000000000003 127.29999999999998 253.60000000000002 127.29999999999998 250.70000000000002 130.2 C 247.8 133.1 247.8 137.89999999999998 250.70000000000002 140.79999999999998 L 301.8 191.89999999999998 L 250.7 243 C 247.79999999999998 245.9 247.79999999999998 250.7 250.7 253.6 C 252.1 255.29999999999998 254.1 256 256 256 C 257.9 256 259.9 255.3 261.3 253.8 L 317.8 197.3 C 320.7 194.4 320.7 189.60000000000002 317.8 186.70000000000002 L 261.3 130.2 Z"/></g><g transform="matrix(1,0,0,1,0,0)"><path fill="#393f44" stroke="none" id="_6FC529E6-09E7-43F0-8671-B7712F93ACE9undefined" paint-order="stroke fill markers" d=" M 0 0 M 400 32 C 400 32 152.8 32 128 32 C 62 32 64 96 64 96 L 64 288 L 1 288 C 1 288 -4 416 78 416 L 320 416 C 368 416 384 368 384 336 C 384 314.2 384 224.4 384 160 L 448 160 L 448 96 C 448 96 449 32 400 32 Z M 0 0 M 78 383.9 C 68.5 383.9 61.6 381.09999999999997 55.5 374.9 C 43.4 362.4 37.5 339.59999999999997 34.9 320 L 256.9 320 C 257.09999999999997 322.7 257.29999999999995 325.4 257.59999999999997 328.2 C 259.99999999999994 351.59999999999997 264.7 370.09999999999997 271.9 383.9 L 78 383.9 L 78 383.9 Z M 0 0 M 352 336 C 352 345.9 349.6 360.3 342.9 371 C 337.2 380.1 330.4 384 320 384 C 285 384 288 288 288 288 L 96 288 L 96 96 L 96 95.9 L 96 95.10000000000001 C 96 90.60000000000001 97.6 78.30000000000001 104.7 71.20000000000002 C 106.5 69.40000000000002 111.9 64.00000000000001 128 64.00000000000001 L 356.5 64.00000000000001 C 354.4 72.80000000000001 352.8 81.80000000000001 352.2 89.9 C 352.2 90.5 352.09999999999997 91.10000000000001 352.09999999999997 91.7 C 352.09999999999997 92 352.09999999999997 92.3 352.09999999999997 92.60000000000001 C 352 94.8 352 96 352 96 L 352 160 L 352 336 Z"/></g></g></g><g transform="matrix(1,0,0,1,0,43.5)"><g><text fill="#000000" stroke="none" font-family="Open Sans" font-size="12pt" font-style="normal" font-weight="normal" text-decoration="normal" x="77" y="12" text-anchor="middle" dominant-baseline="alphabetic" id="_6FC529E6-09E7-43F0-8671-B7712F93ACE9undefined">       request offer       </text><path fill="none" stroke="none"/><text fill="none" stroke="#393f44" font-family="Open Sans" font-size="12pt" font-style="normal" font-weight="normal" text-decoration="normal" x="77" y="12" text-anchor="middle" dominant-baseline="alphabetic" stroke-miterlimit="10" stroke-dasharray="">       request offer       </text></g><g><path fill="none" stroke="black" id="_6FC529E6-09E7-43F0-8671-B7712F93ACE9undefined" paint-order="fill stroke markers" d=" M 0 0 L 0 0" stroke-miterlimit="10" stroke-opacity="0.1" stroke-dasharray=""/></g></g></g><g id="_9CE5719E-685F-4980-A772-BD88C54C561C" bpmn2nodeid="_9CE5719E-685F-4980-A772-BD88C54C561C" transform="matrix(1,0,0,1,704,77)"><g><path fill="none" stroke="none"/></g><g transform="matrix(1,0,0,1,0,0)"><path fill="#ffffff" stroke="none" id="_9CE5719E-685F-4980-A772-BD88C54C561C?shapeType=BACKGROUND" paint-order="stroke fill markers" d=" M 2 0 L 152 0 L 152 0 A 2 2 0 0 1 154 2 L 154 100 L 154 100 A 2 2 0 0 1 152 102 L 2 102 L 2 102 A 2 2 0 0 1 0 100 L 0 2 L 0 2.0000000000000004 A 2 2 0 0 1 1.9999999999999996 0 Z"/></g><g transform="matrix(1,0,0,1,0,0)"><path fill="none" stroke="rgb(0,0,0)" id="_9CE5719E-685F-4980-A772-BD88C54C561C?shapeType=BORDER&amp;renderType=STROKE" paint-order="fill stroke markers" d=" M 2 0 L 152 0 L 152 0 A 2 2 0 0 1 154 2 L 154 100 L 154 100 A 2 2 0 0 1 152 102 L 2 102 L 2 102 A 2 2 0 0 1 0 100 L 0 2 L 0 2.0000000000000004 A 2 2 0 0 1 1.9999999999999996 0 Z" stroke-miterlimit="10" stroke-width="1.5" stroke-dasharray=""/></g><g><g transform="matrix(0.06,0,0,0.06,9.4,9.4)"><g transform="matrix(1,0,0,1,0,0)"><path fill="#393f44" stroke="none" id="_9CE5719E-685F-4980-A772-BD88C54C561Cundefined" paint-order="stroke fill markers" d=" M 0 0 M 197.3 130.2 C 194.4 127.29999999999998 189.60000000000002 127.29999999999998 186.70000000000002 130.2 L 130.20000000000002 186.7 C 127.30000000000001 189.6 127.30000000000001 194.39999999999998 130.20000000000002 197.29999999999998 L 186.70000000000002 253.79999999999998 C 188.10000000000002 255.29999999999998 190.10000000000002 255.99999999999997 192.00000000000003 255.99999999999997 C 193.90000000000003 255.99999999999997 195.90000000000003 255.29999999999998 197.30000000000004 253.69999999999996 C 200.20000000000005 250.79999999999995 200.20000000000005 245.99999999999997 197.30000000000004 243.09999999999997 L 146.2 192 L 197.29999999999998 140.8 C 200.2 137.9 200.2 133.1 197.3 130.2 Z"/></g><g transform="matrix(1,0,0,1,0,0)"><path fill="#393f44" stroke="none" id="_9CE5719E-685F-4980-A772-BD88C54C561Cundefined" paint-order="stroke fill markers" d=" M 0 0 M 261.3 130.2 C 258.40000000000003 127.29999999999998 253.60000000000002 127.29999999999998 250.70000000000002 130.2 C 247.8 133.1 247.8 137.89999999999998 250.70000000000002 140.79999999999998 L 301.8 191.89999999999998 L 250.7 243 C 247.79999999999998 245.9 247.79999999999998 250.7 250.7 253.6 C 252.1 255.29999999999998 254.1 256 256 256 C 257.9 256 259.9 255.3 261.3 253.8 L 317.8 197.3 C 320.7 194.4 320.7 189.60000000000002 317.8 186.70000000000002 L 261.3 130.2 Z"/></g><g transform="matrix(1,0,0,1,0,0)"><path fill="#393f44" stroke="none" id="_9CE5719E-685F-4980-A772-BD88C54C561Cundefined" paint-order="stroke fill markers" d=" M 0 0 M 400 32 C 400 32 152.8 32 128 32 C 62 32 64 96 64 96 L 64 288 L 1 288 C 1 288 -4 416 78 416 L 320 416 C 368 416 384 368 384 336 C 384 314.2 384 224.4 384 160 L 448 160 L 448 96 C 448 96 449 32 400 32 Z M 0 0 M 78 383.9 C 68.5 383.9 61.6 381.09999999999997 55.5 374.9 C 43.4 362.4 37.5 339.59999999999997 34.9 320 L 256.9 320 C 257.09999999999997 322.7 257.29999999999995 325.4 257.59999999999997 328.2 C 259.99999999999994 351.59999999999997 264.7 370.09999999999997 271.9 383.9 L 78 383.9 L 78 383.9 Z M 0 0 M 352 336 C 352 345.9 349.6 360.3 342.9 371 C 337.2 380.1 330.4 384 320 384 C 285 384 288 288 288 288 L 96 288 L 96 96 L 96 95.9 L 96 95.10000000000001 C 96 90.60000000000001 97.6 78.30000000000001 104.7 71.20000000000002 C 106.5 69.40000000000002 111.9 64.00000000000001 128 64.00000000000001 L 356.5 64.00000000000001 C 354.4 72.80000000000001 352.8 81.80000000000001 352.2 89.9 C 352.2 90.5 352.09999999999997 91.10000000000001 352.09999999999997 91.7 C 352.09999999999997 92 352.09999999999997 92.3 352.09999999999997 92.60000000000001 C 352 94.8 352 96 352 96 L 352 160 L 352 336 Z"/></g></g></g><g transform="matrix(1,0,0,1,0,43.5)"><g><text fill="#000000" stroke="none" font-family="Open Sans" font-size="12pt" font-style="normal" font-weight="normal" text-decoration="normal" x="77" y="12" text-anchor="middle" dominant-baseline="alphabetic" id="_9CE5719E-685F-4980-A772-BD88C54C561Cundefined">      prepare offer       </text><path fill="none" stroke="none"/><text fill="none" stroke="#393f44" font-family="Open Sans" font-size="12pt" font-style="normal" font-weight="normal" text-decoration="normal" x="77" y="12" text-anchor="middle" dominant-baseline="alphabetic" stroke-miterlimit="10" stroke-dasharray="">      prepare offer       </text></g><g><path fill="none" stroke="black" id="_9CE5719E-685F-4980-A772-BD88C54C561Cundefined" paint-order="fill stroke markers" d=" M 0 0 L 0 0" stroke-miterlimit="10" stroke-opacity="0.1" stroke-dasharray=""/></g></g></g><g id="_9CE5719E-685F-4980-A772-BD88C54C561C" bpmn2nodeid="_9CE5719E-685F-4980-A772-BD88C54C561C" transform="matrix(1,0,0,1,704,77)"><g><path fill="none" stroke="none"/></g><g transform="matrix(1,0,0,1,0,0)"><path fill="#ffffff" stroke="none" id="_9CE5719E-685F-4980-A772-BD88C54C561C?shapeType=BACKGROUND" paint-order="stroke fill markers" d=" M 2 0 L 152 0 L 152 0 A 2 2 0 0 1 154 2 L 154 100 L 154 100 A 2 2 0 0 1 152 102 L 2 102 L 2 102 A 2 2 0 0 1 0 100 L 0 2 L 0 2.0000000000000004 A 2 2 0 0 1 1.9999999999999996 0 Z"/></g><g transform="matrix(1,0,0,1,0,0)"><path fill="none" stroke="rgb(0,0,0)" id="_9CE5719E-685F-4980-A772-BD88C54C561C?shapeType=BORDER&amp;renderType=STROKE" paint-order="fill stroke markers" d=" M 2 0 L 152 0 L 152 0 A 2 2 0 0 1 154 2 L 154 100 L 154 100 A 2 2 0 0 1 152 102 L 2 102 L 2 102 A 2 2 0 0 1 0 100 L 0 2 L 0 2.0000000000000004 A 2 2 0 0 1 1.9999999999999996 0 Z" stroke-miterlimit="10" stroke-width="1.5" stroke-dasharray=""/></g><g><g transform="matrix(0.06,0,0,0.06,9.4,9.4)"><g transform="matrix(1,0,0,1,0,0)"><path fill="#393f44" stroke="none" id="_9CE5719E-685F-4980-A772-BD88C54C561Cundefined" paint-order="stroke fill markers" d=" M 0 0 M 197.3 130.2 C 194.4 127.29999999999998 189.60000000000002 127.29999999999998 186.70000000000002 130.2 L 130.20000000000002 186.7 C 127.30000000000001 189.6 127.30000000000001 194.39999999999998 130.20000000000002 197.29999999999998 L 186.70000000000002 253.79999999999998 C 188.10000000000002 255.29999999999998 190.10000000000002 255.99999999999997 192.00000000000003 255.99999999999997 C 193.90000000000003 255.99999999999997 195.90000000000003 255.29999999999998 197.30000000000004 253.69999999999996 C 200.20000000000005 250.79999999999995 200.20000000000005 245.99999999999997 197.30000000000004 243.09999999999997 L 146.2 192 L 197.29999999999998 140.8 C 200.2 137.9 200.2 133.1 197.3 130.2 Z"/></g><g transform="matrix(1,0,0,1,0,0)"><path fill="#393f44" stroke="none" id="_9CE5719E-685F-4980-A772-BD88C54C561Cundefined" paint-order="stroke fill markers" d=" M 0 0 M 261.3 130.2 C 258.40000000000003 127.29999999999998 253.60000000000002 127.29999999999998 250.70000000000002 130.2 C 247.8 133.1 247.8 137.89999999999998 250.70000000000002 140.79999999999998 L 301.8 191.89999999999998 L 250.7 243 C 247.79999999999998 245.9 247.79999999999998 250.7 250.7 253.6 C 252.1 255.29999999999998 254.1 256 256 256 C 257.9 256 259.9 255.3 261.3 253.8 L 317.8 197.3 C 320.7 194.4 320.7 189.60000000000002 317.8 186.70000000000002 L 261.3 130.2 Z"/></g><g transform="matrix(1,0,0,1,0,0)"><path fill="#393f44" stroke="none" id="_9CE5719E-685F-4980-A772-BD88C54C561Cundefined" paint-order="stroke fill markers" d=" M 0 0 M 400 32 C 400 32 152.8 32 128 32 C 62 32 64 96 64 96 L 64 288 L 1 288 C 1 288 -4 416 78 416 L 320 416 C 368 416 384 368 384 336 C 384 314.2 384 224.4 384 160 L 448 160 L 448 96 C 448 96 449 32 400 32 Z M 0 0 M 78 383.9 C 68.5 383.9 61.6 381.09999999999997 55.5 374.9 C 43.4 362.4 37.5 339.59999999999997 34.9 320 L 256.9 320 C 257.09999999999997 322.7 257.29999999999995 325.4 257.59999999999997 328.2 C 259.99999999999994 351.59999999999997 264.7 370.09999999999997 271.9 383.9 L 78 383.9 L 78 383.9 Z M 0 0 M 352 336 C 352 345.9 349.6 360.3 342.9 371 C 337.2 380.1 330.4 384 320 384 C 285 384 288 288 288 288 L 96 288 L 96 96 L 96 95.9 L 96 95.10000000000001 C 96 90.60000000000001 97.6 78.30000000000001 104.7 71.20000000000002 C 106.5 69.40000000000002 111.9 64.00000000000001 128 64.00000000000001 L 356.5 64.00000000000001 C 354.4 72.80000000000001 352.8 81.80000000000001 352.2 89.9 C 352.2 90.5 352.09999999999997 91.10000000000001 352.09999999999997 91.7 C 352.09999999999997 92 352.09999999999997 92.3 352.09999999999997 92.60000000000001 C 352 94.8 352 96 352 96 L 352 160 L 352 336 Z"/></g></g></g><g transform="matrix(1,0,0,1,0,43.5)"><g><text fill="#000000" stroke="none" font-family="Open Sans" font-size="12pt" font-style="normal" font-weight="normal" text-decoration="normal" x="77" y="12" text-anchor="middle" dominant-baseline="alphabetic" id="_9CE5719E-685F-4980-A772-BD88C54C561Cundefined">      prepare offer       </text><path fill="none" stroke="none"/><text fill="none" stroke="#393f44" font-family="Open Sans" font-size="12pt" font-style="normal" font-weight="normal" text-decoration="normal" x="77" y="12" text-anchor="middle" dominant-baseline="alphabetic" stroke-miterlimit="10" stroke-dasharray="">      prepare offer       </text></g><g><path fill="none" stroke="black" id="_9CE5719E-685F-4980-A772-BD88C54C561Cundefined" paint-order="fill stroke markers" d=" M 0 0 L 0 0" stroke-miterlimit="10" stroke-opacity="0.1" stroke-dasharray=""/></g></g></g><g id="_11B1D3CA-1771-4CC0-AC2C-171A8808AE15" bpmn2nodeid="_11B1D3CA-1771-4CC0-AC2C-171A8808AE15"><g><path fill="none" stroke="#000000" paint-order="fill stroke markers" d=" M 858 128 L 923 128" stroke-miterlimit="10" stroke-dasharray=""/></g><g transform="matrix(1,0,0,1,858,128)"/><g transform="matrix(6.123233995736766e-17,1,-1,6.123233995736766e-17,938,123)"><path fill="#000000" stroke="#000000" paint-order="fill stroke markers" d=" M 10 15 L 0 15 L 5 0 Z" stroke-miterlimit="10" stroke-dasharray=""/></g></g><g id="_E1B6BBF7-26BE-4F7C-9B99-759FBC52D8FA" bpmn2nodeid="_E1B6BBF7-26BE-4F7C-9B99-759FBC52D8FA" transform="matrix(1,0,0,1,1172,100)"><g><path fill="none" stroke="none"/></g><g transform="matrix(0.125,0,0,0.125,0,0)"><g transform="matrix(1,0,0,1,0,0)"><path fill="#fce7e7" stroke="none" id="_E1B6BBF7-26BE-4F7C-9B99-759FBC52D8FA?shapeType=BACKGROUND" paint-order="stroke fill markers" d=" M 0 0 M 444 224 C 444 263.9 434.2 300.8 414.4 334.5 C 394.7 368.2 368 394.9 334.4 414.5 C 300.79999999999995 434.1 263.9 444 224 444 C 184.10000000000002 444 147.2 434.2 113.5 414.4 C 79.8 394.7 53.1 368 33.5 334.4 C 13.899999999999999 300.79999999999995 4 263.9 4 224 C 4 184.10000000000002 13.8 147.2 33.6 113.5 C 53.400000000000006 79.80000000000001 80.1 53.1 113.6 33.5 C 147.1 13.899999999999999 184.1 4 224 4 C 263.9 4 300.8 13.8 334.5 33.6 C 368.2 53.400000000000006 394.9 80.1 414.5 113.6 C 434.1 147.1 444 184.1 444 224 Z"/></g><g><g transform="matrix(1,0,0,1,0,0)"><g transform="matrix(1,0,0,1,0,0)"><path fill="rgb(163,0,0)" stroke="none" id="_E1B6BBF7-26BE-4F7C-9B99-759FBC52D8FA?shapeType=BORDER&amp;renderType=FILL" paint-order="stroke fill markers" d=" M 0 0 M 224 0 C 100.3 0 0 100.3 0 224 C 0 347.7 100.3 448 224 448 C 347.7 448 448 347.7 448 224 C 448 100.30000000000001 347.7 0 224 0 Z M 0 0 M 224 400 C 126.8 400 48 321.2 48 224 C 48 126.80000000000001 126.8 48 224 48 C 321.2 48 400 126.8 400 224 C 400 321.2 321.2 400 224 400 Z"/></g></g></g></g><g transform="matrix(1,0,0,1,0,56)"><g/><g><path fill="none" stroke="black" id="_E1B6BBF7-26BE-4F7C-9B99-759FBC52D8FAundefined" paint-order="fill stroke markers" d=" M 0 0 L 0 0" stroke-miterlimit="10" stroke-opacity="0.1" stroke-dasharray=""/></g></g></g><g id="_E1B6BBF7-26BE-4F7C-9B99-759FBC52D8FA" bpmn2nodeid="_E1B6BBF7-26BE-4F7C-9B99-759FBC52D8FA" transform="matrix(1,0,0,1,1172,100)"><g><path fill="none" stroke="none"/></g><g transform="matrix(0.125,0,0,0.125,0,0)"><g transform="matrix(1,0,0,1,0,0)"><path fill="#fce7e7" stroke="none" id="_E1B6BBF7-26BE-4F7C-9B99-759FBC52D8FA?shapeType=BACKGROUND" paint-order="stroke fill markers" d=" M 0 0 M 444 224 C 444 263.9 434.2 300.8 414.4 334.5 C 394.7 368.2 368 394.9 334.4 414.5 C 300.79999999999995 434.1 263.9 444 224 444 C 184.10000000000002 444 147.2 434.2 113.5 414.4 C 79.8 394.7 53.1 368 33.5 334.4 C 13.899999999999999 300.79999999999995 4 263.9 4 224 C 4 184.10000000000002 13.8 147.2 33.6 113.5 C 53.400000000000006 79.80000000000001 80.1 53.1 113.6 33.5 C 147.1 13.899999999999999 184.1 4 224 4 C 263.9 4 300.8 13.8 334.5 33.6 C 368.2 53.400000000000006 394.9 80.1 414.5 113.6 C 434.1 147.1 444 184.1 444 224 Z"/></g><g><g transform="matrix(1,0,0,1,0,0)"><g transform="matrix(1,0,0,1,0,0)"><path fill="rgb(163,0,0)" stroke="none" id="_E1B6BBF7-26BE-4F7C-9B99-759FBC52D8FA?shapeType=BORDER&amp;renderType=FILL" paint-order="stroke fill markers" d=" M 0 0 M 224 0 C 100.3 0 0 100.3 0 224 C 0 347.7 100.3 448 224 448 C 347.7 448 448 347.7 448 224 C 448 100.30000000000001 347.7 0 224 0 Z M 0 0 M 224 400 C 126.8 400 48 321.2 48 224 C 48 126.80000000000001 126.8 48 224 48 C 321.2 48 400 126.8 400 224 C 400 321.2 321.2 400 224 400 Z"/></g></g></g></g><g transform="matrix(1,0,0,1,0,56)"><g/><g><path fill="none" stroke="black" id="_E1B6BBF7-26BE-4F7C-9B99-759FBC52D8FAundefined" paint-order="fill stroke markers" d=" M 0 0 L 0 0" stroke-miterlimit="10" stroke-opacity="0.1" stroke-dasharray=""/></g></g></g><g id="_186EF332-3075-4E90-880C-8D2ED1BE180F" bpmn2nodeid="_186EF332-3075-4E90-880C-8D2ED1BE180F"><g><path fill="none" stroke="#000000" paint-order="fill stroke markers" d=" M 1092 128 L 1157 128" stroke-miterlimit="10" stroke-dasharray=""/></g><g transform="matrix(1,0,0,1,1092,128)"/><g transform="matrix(6.123233995736766e-17,1,-1,6.123233995736766e-17,1172,123)"><path fill="#000000" stroke="#000000" paint-order="fill stroke markers" d=" M 10 15 L 0 15 L 5 0 Z" stroke-miterlimit="10" stroke-dasharray=""/></g></g><g transform="matrix(1,0,0,1,1172,100)"/><g id="_997701BE-021B-4E9F-B552-A5DF8DB62608" bpmn2nodeid="_997701BE-021B-4E9F-B552-A5DF8DB62608" transform="matrix(1,0,0,1,938,77)"><g><path fill="none" stroke="none"/></g><g transform="matrix(1,0,0,1,0,0)"><path fill="#ffffff" stroke="none" id="_997701BE-021B-4E9F-B552-A5DF8DB62608?shapeType=BACKGROUND" paint-order="stroke fill markers" d=" M 2 0 L 152 0 L 152 0 A 2 2 0 0 1 154 2 L 154 100 L 154 100 A 2 2 0 0 1 152 102 L 2 102 L 2 102 A 2 2 0 0 1 0 100 L 0 2 L 0 2.0000000000000004 A 2 2 0 0 1 1.9999999999999996 0 Z"/></g><g transform="matrix(1,0,0,1,0,0)"><path fill="none" stroke="rgb(0,136,206)" id="_997701BE-021B-4E9F-B552-A5DF8DB62608?shapeType=BORDER&amp;renderType=STROKE" paint-order="fill stroke markers" d=" M 2 0 L 152 0 L 152 0 A 2 2 0 0 1 154 2 L 154 100 L 154 100 A 2 2 0 0 1 152 102 L 2 102 L 2 102 A 2 2 0 0 1 0 100 L 0 2 L 0 2.0000000000000004 A 2 2 0 0 1 1.9999999999999996 0 Z" stroke-miterlimit="10" stroke-width="1.5" stroke-dasharray=""/></g><g><g transform="matrix(0.06,0,0,0.06,9.4,9.4)"><g transform="matrix(1,0,0,1,0,0)"><path fill="#393f44" stroke="none" id="_997701BE-021B-4E9F-B552-A5DF8DB62608undefined" paint-order="stroke fill markers" d=" M 0 0 M 197.3 130.2 C 194.4 127.29999999999998 189.60000000000002 127.29999999999998 186.70000000000002 130.2 L 130.20000000000002 186.7 C 127.30000000000001 189.6 127.30000000000001 194.39999999999998 130.20000000000002 197.29999999999998 L 186.70000000000002 253.79999999999998 C 188.10000000000002 255.29999999999998 190.10000000000002 255.99999999999997 192.00000000000003 255.99999999999997 C 193.90000000000003 255.99999999999997 195.90000000000003 255.29999999999998 197.30000000000004 253.69999999999996 C 200.20000000000005 250.79999999999995 200.20000000000005 245.99999999999997 197.30000000000004 243.09999999999997 L 146.2 192 L 197.29999999999998 140.8 C 200.2 137.9 200.2 133.1 197.3 130.2 Z"/></g><g transform="matrix(1,0,0,1,0,0)"><path fill="#393f44" stroke="none" id="_997701BE-021B-4E9F-B552-A5DF8DB62608undefined" paint-order="stroke fill markers" d=" M 0 0 M 261.3 130.2 C 258.40000000000003 127.29999999999998 253.60000000000002 127.29999999999998 250.70000000000002 130.2 C 247.8 133.1 247.8 137.89999999999998 250.70000000000002 140.79999999999998 L 301.8 191.89999999999998 L 250.7 243 C 247.79999999999998 245.9 247.79999999999998 250.7 250.7 253.6 C 252.1 255.29999999999998 254.1 256 256 256 C 257.9 256 259.9 255.3 261.3 253.8 L 317.8 197.3 C 320.7 194.4 320.7 189.60000000000002 317.8 186.70000000000002 L 261.3 130.2 Z"/></g><g transform="matrix(1,0,0,1,0,0)"><path fill="#393f44" stroke="none" id="_997701BE-021B-4E9F-B552-A5DF8DB62608undefined" paint-order="stroke fill markers" d=" M 0 0 M 400 32 C 400 32 152.8 32 128 32 C 62 32 64 96 64 96 L 64 288 L 1 288 C 1 288 -4 416 78 416 L 320 416 C 368 416 384 368 384 336 C 384 314.2 384 224.4 384 160 L 448 160 L 448 96 C 448 96 449 32 400 32 Z M 0 0 M 78 383.9 C 68.5 383.9 61.6 381.09999999999997 55.5 374.9 C 43.4 362.4 37.5 339.59999999999997 34.9 320 L 256.9 320 C 257.09999999999997 322.7 257.29999999999995 325.4 257.59999999999997 328.2 C 259.99999999999994 351.59999999999997 264.7 370.09999999999997 271.9 383.9 L 78 383.9 L 78 383.9 Z M 0 0 M 352 336 C 352 345.9 349.6 360.3 342.9 371 C 337.2 380.1 330.4 384 320 384 C 285 384 288 288 288 288 L 96 288 L 96 96 L 96 95.9 L 96 95.10000000000001 C 96 90.60000000000001 97.6 78.30000000000001 104.7 71.20000000000002 C 106.5 69.40000000000002 111.9 64.00000000000001 128 64.00000000000001 L 356.5 64.00000000000001 C 354.4 72.80000000000001 352.8 81.80000000000001 352.2 89.9 C 352.2 90.5 352.09999999999997 91.10000000000001 352.09999999999997 91.7 C 352.09999999999997 92 352.09999999999997 92.3 352.09999999999997 92.60000000000001 C 352 94.8 352 96 352 96 L 352 160 L 352 336 Z"/></g></g></g><g transform="matrix(1,0,0,1,0,43.5)"><g><text fill="#000000" stroke="none" font-family="Open Sans" font-size="12pt" font-style="normal" font-weight="normal" text-decoration="normal" x="77" y="12" text-anchor="middle" dominant-baseline="alphabetic" id="_997701BE-021B-4E9F-B552-A5DF8DB62608undefined">              Task               </text><path fill="none" stroke="none"/><text fill="none" stroke="#393f44" font-family="Open Sans" font-size="12pt" font-style="normal" font-weight="normal" text-decoration="normal" x="77" y="12" text-anchor="middle" dominant-baseline="alphabetic" stroke-miterlimit="10" stroke-dasharray="">              Task               </text></g><g><path fill="none" stroke="black" id="_997701BE-021B-4E9F-B552-A5DF8DB62608undefined" paint-order="fill stroke markers" d=" M 0 0 L 0 0" stroke-miterlimit="10" stroke-opacity="0.1" stroke-dasharray=""/></g></g></g><g id="_997701BE-021B-4E9F-B552-A5DF8DB62608" bpmn2nodeid="_997701BE-021B-4E9F-B552-A5DF8DB62608" transform="matrix(1,0,0,1,938,77)"><g><path fill="none" stroke="none"/></g><g transform="matrix(1,0,0,1,0,0)"><path fill="#ffffff" stroke="none" id="_997701BE-021B-4E9F-B552-A5DF8DB62608?shapeType=BACKGROUND" paint-order="stroke fill markers" d=" M 2 0 L 152 0 L 152 0 A 2 2 0 0 1 154 2 L 154 100 L 154 100 A 2 2 0 0 1 152 102 L 2 102 L 2 102 A 2 2 0 0 1 0 100 L 0 2 L 0 2.0000000000000004 A 2 2 0 0 1 1.9999999999999996 0 Z"/></g><g transform="matrix(1,0,0,1,0,0)"><path fill="none" stroke="rgb(0,136,206)" id="_997701BE-021B-4E9F-B552-A5DF8DB62608?shapeType=BORDER&amp;renderType=STROKE" paint-order="fill stroke markers" d=" M 2 0 L 152 0 L 152 0 A 2 2 0 0 1 154 2 L 154 100 L 154 100 A 2 2 0 0 1 152 102 L 2 102 L 2 102 A 2 2 0 0 1 0 100 L 0 2 L 0 2.0000000000000004 A 2 2 0 0 1 1.9999999999999996 0 Z" stroke-miterlimit="10" stroke-width="1.5" stroke-dasharray=""/></g><g><g transform="matrix(0.06,0,0,0.06,9.4,9.4)"><g transform="matrix(1,0,0,1,0,0)"><path fill="#393f44" stroke="none" id="_997701BE-021B-4E9F-B552-A5DF8DB62608undefined" paint-order="stroke fill markers" d=" M 0 0 M 197.3 130.2 C 194.4 127.29999999999998 189.60000000000002 127.29999999999998 186.70000000000002 130.2 L 130.20000000000002 186.7 C 127.30000000000001 189.6 127.30000000000001 194.39999999999998 130.20000000000002 197.29999999999998 L 186.70000000000002 253.79999999999998 C 188.10000000000002 255.29999999999998 190.10000000000002 255.99999999999997 192.00000000000003 255.99999999999997 C 193.90000000000003 255.99999999999997 195.90000000000003 255.29999999999998 197.30000000000004 253.69999999999996 C 200.20000000000005 250.79999999999995 200.20000000000005 245.99999999999997 197.30000000000004 243.09999999999997 L 146.2 192 L 197.29999999999998 140.8 C 200.2 137.9 200.2 133.1 197.3 130.2 Z"/></g><g transform="matrix(1,0,0,1,0,0)"><path fill="#393f44" stroke="none" id="_997701BE-021B-4E9F-B552-A5DF8DB62608undefined" paint-order="stroke fill markers" d=" M 0 0 M 261.3 130.2 C 258.40000000000003 127.29999999999998 253.60000000000002 127.29999999999998 250.70000000000002 130.2 C 247.8 133.1 247.8 137.89999999999998 250.70000000000002 140.79999999999998 L 301.8 191.89999999999998 L 250.7 243 C 247.79999999999998 245.9 247.79999999999998 250.7 250.7 253.6 C 252.1 255.29999999999998 254.1 256 256 256 C 257.9 256 259.9 255.3 261.3 253.8 L 317.8 197.3 C 320.7 194.4 320.7 189.60000000000002 317.8 186.70000000000002 L 261.3 130.2 Z"/></g><g transform="matrix(1,0,0,1,0,0)"><path fill="#393f44" stroke="none" id="_997701BE-021B-4E9F-B552-A5DF8DB62608undefined" paint-order="stroke fill markers" d=" M 0 0 M 400 32 C 400 32 152.8 32 128 32 C 62 32 64 96 64 96 L 64 288 L 1 288 C 1 288 -4 416 78 416 L 320 416 C 368 416 384 368 384 336 C 384 314.2 384 224.4 384 160 L 448 160 L 448 96 C 448 96 449 32 400 32 Z M 0 0 M 78 383.9 C 68.5 383.9 61.6 381.09999999999997 55.5 374.9 C 43.4 362.4 37.5 339.59999999999997 34.9 320 L 256.9 320 C 257.09999999999997 322.7 257.29999999999995 325.4 257.59999999999997 328.2 C 259.99999999999994 351.59999999999997 264.7 370.09999999999997 271.9 383.9 L 78 383.9 L 78 383.9 Z M 0 0 M 352 336 C 352 345.9 349.6 360.3 342.9 371 C 337.2 380.1 330.4 384 320 384 C 285 384 288 288 288 288 L 96 288 L 96 96 L 96 95.9 L 96 95.10000000000001 C 96 90.60000000000001 97.6 78.30000000000001 104.7 71.20000000000002 C 106.5 69.40000000000002 111.9 64.00000000000001 128 64.00000000000001 L 356.5 64.00000000000001 C 354.4 72.80000000000001 352.8 81.80000000000001 352.2 89.9 C 352.2 90.5 352.09999999999997 91.10000000000001 352.09999999999997 91.7 C 352.09999999999997 92 352.09999999999997 92.3 352.09999999999997 92.60000000000001 C 352 94.8 352 96 352 96 L 352 160 L 352 336 Z"/></g></g></g><g transform="matrix(1,0,0,1,0,43.5)"><g><text fill="#000000" stroke="none" font-family="Open Sans" font-size="12pt" font-style="normal" font-weight="normal" text-decoration="normal" x="77" y="12" text-anchor="middle" dominant-baseline="alphabetic" id="_997701BE-021B-4E9F-B552-A5DF8DB62608undefined">              Task               </text><path fill="none" stroke="none"/><text fill="none" stroke="#393f44" font-family="Open Sans" font-size="12pt" font-style="normal" font-weight="normal" text-decoration="normal" x="77" y="12" text-anchor="middle" dominant-baseline="alphabetic" stroke-miterlimit="10" stroke-dasharray="">              Task               </text></g><g><path fill="none" stroke="black" id="_997701BE-021B-4E9F-B552-A5DF8DB62608undefined" paint-order="fill stroke markers" d=" M 0 0 L 0 0" stroke-miterlimit="10" stroke-opacity="0.1" stroke-dasharray=""/></g></g></g><g transform="matrix(1,0,0,1,938,77)"/><g transform="matrix(1,0,0,1,470,77)"/><g transform="matrix(1,0,0,1,704,77)"/></g></g></svg>